<svg width="24" height="24" fill="none" xmlns="http://www.w3.org/2000/svg"><path d="M8.860 1.582 C 6.063 1.959,3.601 3.735,2.376 6.260 C 1.788 7.474,1.509 8.674,1.507 10.000 C 1.505 12.264,2.388 14.393,3.998 16.002 C 4.706 16.711,5.423 17.224,6.289 17.639 C 8.018 18.470,9.909 18.703,11.760 18.313 C 12.663 18.123,13.808 17.658,14.553 17.177 L 14.846 16.989 17.473 19.609 C 20.310 22.438,20.261 22.396,20.772 22.479 C 21.750 22.638,22.638 21.750,22.479 20.772 C 22.396 20.261,22.438 20.310,19.609 17.473 L 16.989 14.846 17.178 14.553 C 17.444 14.140,17.851 13.294,18.019 12.805 C 18.649 10.967,18.662 9.162,18.059 7.322 C 17.051 4.247,14.332 2.002,11.108 1.582 C 10.533 1.507,9.419 1.507,8.860 1.582 M10.923 4.583 C 13.201 4.966,15.034 6.799,15.417 9.077 C 15.499 9.565,15.499 10.435,15.417 10.923 C 15.130 12.631,14.011 14.141,12.458 14.914 C 11.667 15.307,10.885 15.491,10.000 15.491 C 8.536 15.491,7.207 14.947,6.158 13.920 C 5.336 13.115,4.771 12.038,4.583 10.923 C 4.501 10.435,4.501 9.565,4.583 9.077 C 4.766 7.988,5.326 6.907,6.116 6.116 C 6.899 5.334,7.975 4.773,9.060 4.583 C 9.506 4.505,10.458 4.505,10.923 4.583 " fill="white" stroke="black" fill-rule="evenodd"></path></svg>